<svg id="svg" version="1.1" viewBox="0 0 300 252" width="300" height="252" xmlns="http://www.w3.org/2000/svg"><svg xmlns="http://www.w3.org/2000/svg"><defs><clipPath id="clip-1"><rect x="0" y="0" transform="scale(0.14648,0.14651)" width="2048" height="1720" fill="none"/></clipPath></defs><g clip-path="url(#clip-1)" fill="none" fill-rule="nonzero" stroke="none" stroke-width="1" stroke-linecap="butt" stroke-linejoin="miter" stroke-miterlimit="10" stroke-dasharray="" stroke-dashoffset="0" font-family="none" font-weight="none" font-size="none" text-anchor="none" style="mix-blend-mode: normal"><path d="M0,0h300v252h-300z" fill="#fefefd"/><path d="M267.10986,39.19186c4.25098,-0.42547 11.76855,0.06461 15.71631,1.60049c0.74268,2.29305 0.78662,5.3698 0.90527,7.58286c1.10742,20.63206 -12.15674,44.24256 -32.3833,50.8643c-1.47803,0.48422 -3.16406,0.92786 -4.60107,1.56709l-0.17725,0.08029c1.39893,1.51332 3.09814,2.91529 4.47217,4.44297c2.22217,2.30287 3.94922,5.0567 5.98096,7.49436c2.83008,3.39629 -0.94629,6.33546 -3.48486,8.83743c-4.4502,4.2947 -9.61963,6.68357 -15.5918,7.99411c-16.42383,3.60331 -32.31006,-5.18417 -45.6665,-13.7507c-4.05322,-2.59956 -7.91602,-5.67747 -12.01465,-8.35087c-0.53027,0.69124 -4.71973,6.35714 -4.1499,6.85059c2.55762,2.25408 5.30859,4.47842 7.68457,6.93293c24.5376,25.33801 19.94678,66.6499 -7.56152,87.86039c-3.66357,2.82181 -7.3125,5.28174 -10.18945,8.96651c-3.0498,3.906 -4.05469,7.93653 -5.82568,12.38756c-0.20215,0.50547 -0.40576,0.66663 -0.89209,0.819c-1.13232,-0.34723 -2.01416,-4.33528 -2.62793,-5.85753c-3.44678,-8.53577 -7.6626,-11.31949 -14.37876,-16.61295c-12.92358,-10.36863 -21.53232,-25.2586 -22.96025,-41.84958c-1.47847,-17.17849 2.57842,-30.10873 13.30239,-43.39264c2.57285,-3.00437 7.91616,-7.94928 11.54033,-9.6179c-1.33169,-2.20324 -2.73779,-3.88197 -4.3311,-5.87717c-3.03003,1.91725 -6.01611,4.36224 -9.04761,6.31949c-11.99033,7.74167 -25.35117,15.81447 -40.05674,15.9157c-10.96743,0.0756 -18.16025,-3.24846 -25.74727,-10.95614c-0.71895,-0.73051 -2.37393,-2.43341 -2.22759,-3.44976c0.61377,-4.26085 8.37935,-12.47825 11.35166,-15.13626c-2.35708,-1.30132 -5.05386,-1.88385 -7.55186,-3.09125c-9.08437,-4.39081 -15.73447,-10.3594 -20.91782,-18.98849c-6.35054,-10.57228 -9.59033,-26.19467 -6.61846,-38.22386c1.44814,-0.51235 2.85923,-0.68699 4.35879,-0.8275c28.28174,-2.65025 55.10786,10.09934 77.80093,25.77198c3.72275,2.57113 9.15278,5.68949 12.14751,9.14203c0.32739,-2.20529 1.53208,-5.84215 2.48247,-7.83412c2.91094,-6.25531 8.23594,-11.06075 14.75522,-13.31615c6.91113,-2.41671 16.31982,-1.67199 22.94092,1.43142c4.77246,2.23709 9.73975,7.30683 11.74365,12.21204c0.83203,2.0371 1.56445,4.90711 2.33936,7.14361c3.00293,-3.15132 10.5791,-8.02312 14.3877,-10.45859c5.31738,-3.39922 12.23584,-7.96965 17.84326,-10.82955c5.41113,-2.76072 12.54199,-5.653 18.24756,-7.79457c3.27979,-1.23114 8.60889,-3.33812 12.00293,-3.97984c5.34961,-1.01137 11.58838,-1.67155 16.99951,-2.02171z" fill="#222222"/><path d="M159.34131,115.3423c0.70166,0.13831 1.22021,0.46942 1.84131,0.79468c8.89746,4.67943 17.15771,11.70643 22.26855,20.44379c9.67236,16.53853 8.55908,37.9219 -2.45361,53.5415c-6.0249,8.54602 -12.64307,13.4527 -21.56104,18.73005l-0.271,0.08644c-0.31348,-0.0674 -0.31348,-0.06007 -0.59766,-0.22709c-13.72002,-7.97902 -24.55313,-19.41426 -28.33052,-35.24337c-3.53335,-14.92953 -0.33735,-31.70658 9.75059,-43.4719c3.9022,-4.55109 13.52036,-13.22473 19.35337,-14.65409z" fill="#fefefd"/><path d="M157.46631,143.65436c9.50391,-1.08184 18.0835,5.74941 19.16016,15.25655c1.07666,9.50567 -5.7583,18.08393 -15.26221,19.1564c-9.49951,1.071 -18.06812,-5.75791 -19.14419,-15.25772c-1.07593,-9.49981 5.74819,-18.07411 15.24624,-19.15522z" fill="#4575dc"/><path d="M268.86035,48.40964c1.64648,-0.15633 3.73975,-0.09509 5.38623,-0.02945c1.11768,10.90647 -4.71094,23.94923 -11.68652,32.03609c-7.53809,8.73913 -19.48535,13.26839 -30.90674,12.62535c-3.85547,-0.21698 -7.53516,-0.73959 -11.36719,-1.13737c-10.5498,-0.70282 -21.07178,-1.94523 -31.65088,-1.28256c-2.84619,0.17581 -5.53125,0.66033 -8.41846,0.61813c3.00732,-2.37334 6.49805,-5.43866 9.39258,-7.59297c4.86475,-3.61986 10.32275,-7.16955 15.41895,-10.47924c13.60254,-8.83289 29.02441,-17.4425 44.63086,-21.98553c5.11084,-1.48753 13.75928,-2.29818 19.20117,-2.77244z" fill="#fefefd"/><path d="M47.75449,48.71057c2.65107,-0.2123 5.92266,-0.06754 8.59233,0.06534c11.17354,0.60963 22.31089,4.32312 32.41802,9.00666c6.43271,2.98093 12.84946,6.78598 19.05732,10.22871c2.97524,1.65001 5.902,3.41914 8.74189,5.2879c2.77969,1.8292 5.38315,3.87421 8.09121,5.8023c5.48232,3.89384 11.17764,7.58154 15.70327,12.62564c-1.09863,-0.1071 -2.24341,-0.14959 -3.34907,-0.20687c-7.97681,-0.45653 -15.73301,-1.18704 -23.78086,-0.81988c-2.27358,0.02154 -4.54819,0.50034 -6.80757,0.59542c-7.89185,0.33214 -15.91318,2.24324 -23.80313,1.55551c-3.94058,-0.34342 -8.06836,-1.28315 -11.61255,-2.92173c-14.89541,-6.88649 -22.95981,-22.86006 -23.93481,-38.6864c-0.03926,-0.63806 -0.00732,-1.65016 0.17988,-2.26844c0.06489,-0.2142 0.27495,-0.19677 0.50405,-0.26416z" fill="#fefefd"/><path d="M116.89512,100.13454c3.75439,-0.1027 7.53706,-0.0422 11.29424,-0.10974c2.3335,-0.0419 4.69819,-0.00864 6.99565,0.43323c-0.58096,0.38708 -1.1855,0.76992 -1.78271,1.13605c-5.40879,3.31585 -10.33813,7.43019 -15.91509,10.46489c-1.97285,0.96742 -3.89751,2.07973 -5.86143,3.0577c-2.62471,1.30718 -5.51953,2.92847 -8.27417,3.86703c-3.67573,1.26132 -7.52212,1.95505 -11.40674,2.05717c-8.87666,0.1846 -10.92759,-0.89504 -18.40327,-5.23603c0.83042,-1.92414 2.00039,-3.68286 3.45381,-5.19252c4.39409,-4.62361 9.17695,-6.75038 15.2877,-8.06034c8.27783,-1.77455 16.17817,-2.21745 24.61201,-2.41744z" fill="#fefefd"/><path d="M188.50635,100.13791c2.8125,-0.01084 5.65869,0.16805 8.47559,0.17992c5.46533,0.023 10.91455,-0.31515 16.3667,0.20438c12.79248,1.21868 26.56641,2.57392 33.70752,14.87811c-1.34619,1.60753 -3.25049,2.65025 -5.15186,3.46134c-3.91406,1.49969 -6.44531,1.91637 -10.53955,2.19196c-8.28516,0.55733 -15.55078,-2.64073 -22.70654,-6.44241c-2.78174,-1.4783 -5.68359,-2.6608 -8.2998,-4.43505c-2.82568,-1.89733 -5.70996,-3.73385 -8.50928,-5.66736c-2.19727,-1.5164 -4.62744,-2.59677 -6.76465,-4.17426c1.13379,-0.13391 2.28223,-0.1556 3.42188,-0.19662z" fill="#fefefd"/><path d="M159.8584,23.08188c1.15283,0.91614 4.39746,7.95954 5.12402,9.44194c0.6665,1.35904 1.72119,3.17681 2.47998,4.54494c2.44189,-1.27626 4.72266,-2.83647 7.14111,-4.13207c2.16943,-1.16257 4.53662,-2.16105 6.77197,-3.22062c-2.66455,3.35248 -5.24561,10.24146 -6.97705,14.2903c-0.49219,1.15129 -0.84814,3.60287 -1.50879,4.60354c-0.81445,0.21801 -3.82031,-0.79732 -4.82227,-1.06323c-2.39502,-0.6574 -4.85596,-1.04683 -7.33594,-1.1611c-3.31787,-0.07179 -6.43799,0.60861 -9.66064,1.31421c-1.02832,0.22504 -2.58984,1.12697 -3.39111,0.98676c-0.40576,-0.88933 -0.75293,-2.43854 -0.99609,-3.4417c-1.37139,-5.66414 -4.43774,-10.5084 -6.79819,-15.77872c0.73916,0.48876 1.47524,0.92434 2.25586,1.3419c3.7853,2.02494 7.44712,4.27492 11.1356,6.47625c0.58447,-1.59156 1.80322,-3.86864 2.52539,-5.49199c1.29785,-2.921 2.55908,-5.89226 4.05615,-8.71041z" fill="#222222"/></g></svg></svg>